<svg xmlns="http://www.w3.org/2000/svg" width="44.472" height="44.472" viewBox="0 0 44.472 44.472">
  <path id="Icon_awesome-whatsapp" data-name="Icon awesome-whatsapp" d="M37.811,8.712A22.045,22.045,0,0,0,3.127,35.306L0,46.722l11.684-3.067a21.97,21.97,0,0,0,10.532,2.68h.01A22.25,22.25,0,0,0,44.472,24.3,22.124,22.124,0,0,0,37.811,8.712ZM22.226,42.622a18.284,18.284,0,0,1-9.331-2.551l-.665-.4L5.3,41.491l1.846-6.76-.437-.695A18.352,18.352,0,1,1,40.75,24.3,18.521,18.521,0,0,1,22.226,42.622ZM32.272,28.9c-.546-.278-3.256-1.608-3.762-1.787s-.874-.278-1.241.278-1.42,1.787-1.747,2.164-.645.417-1.191.139c-3.236-1.618-5.36-2.889-7.495-6.552-.566-.973.566-.9,1.618-3.008a1.02,1.02,0,0,0-.05-.963c-.139-.278-1.241-2.988-1.7-4.09-.447-1.072-.9-.923-1.241-.943-.318-.02-.685-.02-1.052-.02a2.04,2.04,0,0,0-1.469.685,6.188,6.188,0,0,0-1.926,4.6c0,2.71,1.975,5.331,2.243,5.7s3.881,5.926,9.411,8.319c3.494,1.509,4.864,1.638,6.611,1.38,1.062-.159,3.256-1.33,3.713-2.621a4.605,4.605,0,0,0,.318-2.621C33.185,29.311,32.818,29.172,32.272,28.9Z" transform="translate(0 -2.25)" fill="#2d2a26"/>
</svg>
