<svg id="Logo" xmlns="http://www.w3.org/2000/svg" width="198.961" height="54.288" viewBox="0 0 198.961 54.288">
  <g id="Bruker" transform="translate(0 15.92)">
    <path id="Path_1" data-name="Path 1" d="M21.349,52.249a8.5,8.5,0,0,0,3.557-3.112,10.274,10.274,0,0,0,1.544-5.7c0-3.229-1.106-5.653-3.287-7.2a9.272,9.272,0,0,0-3.706-1.572,26.078,26.078,0,0,0-4.815-.39H0V71.817H14.892a19.652,19.652,0,0,0,5.481-.69,10.045,10.045,0,0,0,3.983-2.147c1.915-1.8,2.887-4.561,2.887-8.216A8.784,8.784,0,0,0,25.452,55.1a8.995,8.995,0,0,0-4.1-2.846M20.5,46.2a3.815,3.815,0,0,1-.91,2.637,3.659,3.659,0,0,1-2.845,1H5.688V39.428H16.741c2.528.017,3.757,1.146,3.757,3.454ZM5.688,55H17.351a4.519,4.519,0,0,1,2.9.86,3.114,3.114,0,0,1,1.038,2.568v4.464a3.376,3.376,0,0,1-1.144,2.844,4.94,4.94,0,0,1-3.141.927H5.688Z" transform="translate(0 -34.272)" fill="#fff"/>
    <path id="Path_2" data-name="Path 2" d="M96.529,55.038a9.62,9.62,0,0,0,2.6-1.846,8.72,8.72,0,0,0,2.086-3.522,16.487,16.487,0,0,0-.04-9.2,8.219,8.219,0,0,0-2.188-3.445,9.444,9.444,0,0,0-3.768-2.078,18.072,18.072,0,0,0-5.168-.675H75.9V71.817h5.688V56.195h5.635l8.623,15.623h6.516l-9.13-15.839a11.21,11.21,0,0,0,3.3-.94M95.9,43.2v4.091a4.145,4.145,0,0,1-1.019,2.8,3.663,3.663,0,0,1-2.948,1.16H81.589V39.428h10.34a4.126,4.126,0,0,1,2.915.991A3.642,3.642,0,0,1,95.9,43.2" transform="translate(-40.803 -34.272)" fill="#fff"/>
    <path id="Path_3" data-name="Path 3" d="M170.78,58.77a9.124,9.124,0,0,1-2.2,6.47,8.255,8.255,0,0,1-6.313,2.348,8.162,8.162,0,0,1-6.259-2.331,9.2,9.2,0,0,1-2.178-6.487v-24.5H148.14v24.1a16.806,16.806,0,0,0,1,5.952,12.331,12.331,0,0,0,2.851,4.478,12.746,12.746,0,0,0,4.469,2.837,16.179,16.179,0,0,0,5.808,1,16.444,16.444,0,0,0,5.843-1,12.831,12.831,0,0,0,4.5-2.837,12.359,12.359,0,0,0,2.862-4.478,16.756,16.756,0,0,0,1-5.954v-24.1H170.78Z" transform="translate(-79.638 -34.271)" fill="#fff"/>
    <path id="Path_4" data-name="Path 4" d="M256.587,34.271H249.6L234.592,51.228V34.271H228.9V71.817h5.688V52.411l16.274,19.312.08.094h6.97l-17.125-20Z" transform="translate(-123.055 -34.271)" fill="#fff"/>
    <path id="Path_5" data-name="Path 5" d="M302.573,71.817h24.97V66.659H308.26V55.265h16.795V50.107H308.26V39.428h19.282V34.272h-24.97Z" transform="translate(-162.659 -34.271)" fill="#fff"/>
    <path id="Path_6" data-name="Path 6" d="M390.373,55.979a11.23,11.23,0,0,0,3.3-.94,9.606,9.606,0,0,0,2.6-1.846,8.723,8.723,0,0,0,2.087-3.522,16.488,16.488,0,0,0-.04-9.2,8.23,8.23,0,0,0-2.188-3.445,9.446,9.446,0,0,0-3.769-2.078,18.064,18.064,0,0,0-5.167-.675h-14.15V71.817h5.688V56.195h5.635l8.622,15.623H399.5ZM393.036,43.2v4.091a4.142,4.142,0,0,1-1.019,2.8,3.664,3.664,0,0,1-2.949,1.16h-10.34V39.428h10.34a4.124,4.124,0,0,1,2.914.991,3.641,3.641,0,0,1,1.053,2.782" transform="translate(-200.542 -34.272)" fill="#fff"/>
  </g>
  <g id="Ladrillos" transform="translate(68.502)">
    <rect id="Rectangle_1" data-name="Rectangle 1" width="14.165" height="5.307" transform="translate(0 5.306)" fill="#f15d3b"/>
    <rect id="Rectangle_2" data-name="Rectangle 2" width="14.165" height="5.307" transform="translate(14.164)" fill="#f15d3b"/>
  </g>
</svg>
